<?xml version="1.0" encoding="utf-8"?>
<!-- Generator: Adobe Illustrator 16.0.2, SVG Export Plug-In . SVG Version: 6.00 Build 0)  -->
<!DOCTYPE svg PUBLIC "-//W3C//DTD SVG 1.1//EN" "http://www.w3.org/Graphics/SVG/1.1/DTD/svg11.dtd">
<svg version="1.1" id="Layer_1" xmlns="http://www.w3.org/2000/svg" xmlns:xlink="http://www.w3.org/1999/xlink" x="0px" y="0px"
	 width="1080px" height="1080px" viewBox="0 0 1080 1080" enable-background="new 0 0 1080 1080" xml:space="preserve">
<g>
	<path fill-rule="evenodd" clip-rule="evenodd" fill="#F2BB2D" d="M539.146,869.449c-122.905-0.004-245.812,0.191-368.72-0.084
		c-62.812-0.143-110.641-41.706-119.978-103.453c-0.941-6.232-0.99-12.64-0.993-18.967C49.406,608.972,49.378,471,49.436,333.024
		c0.031-70.65,51.749-122.485,122.352-122.501c244.626-0.058,489.254-0.036,733.88-0.007
		c72.903,0.009,123.805,49.778,124.624,122.679c0.601,53.122,0.126,106.255,0.128,159.382c0.002,84.448,0.215,168.901-0.061,253.35
		c-0.205,62.917-39.484,111.163-98.814,121.787c-8.514,1.523-17.357,1.658-26.051,1.664
		C783.377,869.481,661.262,869.449,539.146,869.449z M952.948,513.302c-275.981,0-550.385,0-826,0c0,5.06,0,9.342,0,13.621
		c-0.002,72.928-0.014,145.854-0.005,218.779c0.005,32.189,14.192,46.497,46.257,46.497c244.543,0.006,489.086-0.006,733.632-0.036
		c31.688-0.003,46.121-14.707,46.122-46.82c0.009-58.263-0.003-116.524-0.007-174.788
		C952.948,551.95,952.948,533.346,952.948,513.302z M952.943,393.248c0-20.416,0.033-40.121-0.009-59.829
		c-0.063-30.633-14.643-45.239-45.101-45.239c-244.558,0-489.113,0.001-733.669,0.006c-3.565,0-7.141-0.127-10.7,0.055
		c-18.153,0.946-34.632,14.334-35.693,32.219c-1.424,23.972-0.353,48.092-0.353,72.787
		C402.684,393.248,677.108,393.248,952.943,393.248z"/>
	<path fill-rule="evenodd" clip-rule="evenodd" fill="#F2BB2D" d="M751.854,708.695c-46.426,34.76-92.743,33.854-125.14-2.448
		c-28.393-31.817-27.711-81.484,1.546-112.805c32.573-34.867,78.283-35.096,123.567-0.611c45.774-34.748,91.977-34.181,124.259,1.53
		c28.981,32.05,29.017,80.981,0.08,112.773C843.924,742.567,797.675,743.146,751.854,708.695z"/>
	<path fill-rule="evenodd" clip-rule="evenodd" fill="#F2BB2D" d="M182.512,733.807c0-22.417,0-43.641,0-65.68
		c41.029,0,81.564,0,122.94,0c0,21.736,0,43.277,0,65.68C264.884,733.807,224.341,733.807,182.512,733.807z"/>
	<path fill-rule="evenodd" clip-rule="evenodd" fill="#F2BB2D" d="M491.385,733.993c-41.497,0-81.717,0-122.69,0
		c0-22.163,0-43.692,0-65.947c40.891,0,81.396,0,122.69,0C491.385,690.043,491.385,711.557,491.385,733.993z"/>
</g>
</svg>
